<svg xmlns="http://www.w3.org/2000/svg" viewBox="0 0 879.5 581.35"><defs><style>.cls-1{fill:#3f3d56;}.cls-2{fill:#e6e8ec;}.cls-3{fill:#00ffba;}.cls-4,.cls-5{fill:#fff;}.cls-4{opacity:0.3;isolation:isolate;}.cls-6{fill:#ffb8b8;}.cls-7{fill:#2f2e41;}.cls-8{fill:#f2f2f2;}</style></defs><title>Asset 1</title><g id="Layer_2" data-name="Layer 2"><g id="f7bb3db6-0aca-42e3-bcc4-5e9b3a55e19d"><path class="cls-1" d="M643,581.35q-36.48-5.72-70.14-9.71l8.64-17.29c-3-1-16,9-16,9l11-50c-15,2-22,53-22,53l-17-17,8.37,19.25c-68.68-7.22-127.95-9.47-177.77-9l7.4-14.8c-3-1-16,9-16,9l11-50c-15,2-22,53-22,53l-17-17,8.86,20.39a998.2,998.2,0,0,0-102,8.21c7.38-23,33.16-45.1,33.16-45.1-19.82,6.17-30.13,16.21-35.47,25.53a401.59,401.59,0,0,1,21.47-139s-40,90-34,150l.76,10.66c-34.8,5.43-52.26,10.84-52.26,10.84Z"/><path class="cls-1" d="M734.67,457.49a12,12,0,1,1,12-12A12,12,0,0,1,734.67,457.49Zm0-22a10,10,0,1,0,10,10A10,10,0,0,0,734.67,435.49Z"/><path class="cls-1" d="M830.5,579.78H810.76V560H830.5Zm-18.22-1.52H829V561.55h-16.7Z"/><path class="cls-1" d="M162.14,580.86l-13.46-14.44L163.11,553l13.47,14.44Zm-11.31-14.37,11.39,12.22,12.21-11.39L163,555.1Z"/><rect class="cls-1" x="21.67" y="578.66" width="857.83" height="2"/><path class="cls-1" d="M553.47,133.76v65.68a2.29,2.29,0,0,1-2.29,2.29h-1.62V543.88a35.71,35.71,0,0,1-35.7,35.7H300.07a35.68,35.68,0,0,1-35.69-35.7h0V213.73H263.2a1.61,1.61,0,0,1-1.62-1.61V174.74a1.61,1.61,0,0,1,1.61-1.62h1.19V159h-1.2a1.68,1.68,0,0,1-1.68-1.7V120.47a1.69,1.69,0,0,1,1.68-1.69h1.2V99.56h-1.21a1.5,1.5,0,0,1-1.5-1.5h0V77.94a1.49,1.49,0,0,1,1.5-1.51h1.21V35.69A35.68,35.68,0,0,1,300.07,0H513.85a35.71,35.71,0,0,1,35.71,35.69v95.78h1.62A2.29,2.29,0,0,1,553.47,133.76Z"/><rect class="cls-2" x="379.98" y="18.31" width="39.82" height="8.09" rx="2.54"/><circle class="cls-2" cx="430.41" cy="22.35" r="4.59"/><path class="cls-3" d="M532.46,42.75V546.84a22.65,22.65,0,0,1-22.65,22.64H305.16a22.54,22.54,0,0,1-10.46-2.55,21.17,21.17,0,0,1-2.2-1.3,22.66,22.66,0,0,1-10-18.79V42.75A22.65,22.65,0,0,1,305.16,20.1h30.63V24a18.65,18.65,0,0,0,18.65,18.65H458.52A18.65,18.65,0,0,0,477.17,24V20.1h32.64a22.64,22.64,0,0,1,22.65,22.64Z"/><path class="cls-4" d="M532.46,474.68v72.16a22.65,22.65,0,0,1-22.65,22.64H305.16a22.54,22.54,0,0,1-10.46-2.55,21.17,21.17,0,0,1-2.2-1.3,22.66,22.66,0,0,1-10-18.79V474.71A187,187,0,0,1,532.46,474.68Z"/><path class="cls-4" d="M520.29,566.91a22.37,22.37,0,0,1-10.48,2.57H305.16a22.54,22.54,0,0,1-10.46-2.55,122.16,122.16,0,0,1,225.59,0Z"/><path class="cls-4" d="M475.75,568.12a13.61,13.61,0,0,1-6.34,1.56H345.57a13.68,13.68,0,0,1-6.33-1.55,73.93,73.93,0,0,1,136.51,0Z"/><path class="cls-5" d="M459.55,215.25c-20.53,0-43.06-3.91-60.65-17.1-24.49-18.36-54.66-17.38-75.65-13.33A164.91,164.91,0,0,0,283,198.24l-.92-1.78a167,167,0,0,1,40.76-13.59c21.41-4.14,52.2-5.14,77.29,13.68,47,35.25,131.16,3.59,132,3.27l.72,1.87a242.85,242.85,0,0,1-48.71,11.85A186.89,186.89,0,0,1,459.55,215.25Z"/><path class="cls-4" d="M282.5,197.35s69-16.71,117,6.17,133-.17,133-.17"/><path class="cls-4" d="M347.64,223.31a131.9,131.9,0,0,1-24.83-2.48,166.59,166.59,0,0,1-40.76-13.59l.92-1.78a164.91,164.91,0,0,0,40.28,13.42c21,4.06,51.16,5,75.65-13.33,25.07-18.8,60.18-18.75,85.21-15.39A242.2,242.2,0,0,1,532.82,202l-.72,1.86c-.84-.32-85-32-132,3.27C383.65,219.49,364.74,223.31,347.64,223.31Z"/><path class="cls-4" d="M348,215.26c-34.63,0-65.39-12.43-65.85-12.62l.76-1.85c.69.29,69.09,27.9,116.1.07,47.83-28.32,132.91-3,133.76-2.78l-.58,1.91c-.84-.26-85.09-25.28-132.16,2.59C384,212.09,365.47,215.26,348,215.26Z"/><path class="cls-4" d="M282.51,200.18s69,22.88,117,0,133-2.16,133-2.16"/><path class="cls-6" d="M550.27,261.4v29.15s2.33,32.65,15.16,49c0,0,21,29.74,23.9,23.32l-3.59-21.11L573.59,330.2l-6.41-36.15-1.75-32.65Z"/><polygon class="cls-6" points="679.12 524.94 679.12 546.51 661.63 552.93 661.63 527.86 679.12 524.94"/><polygon class="cls-6" points="643.56 522.61 655.22 548.85 638.89 555.84 635.39 530.19 643.56 522.61"/><path class="cls-7" d="M672.71,321.45S696,531.94,687.29,532.52s-25.66,11.66-25.66,4.08-13.41-106.11-13.41-106.11L635.4,379.76v70L648.81,529s-12.83,16.91-22.16,7l-19.82-77.55s-26.24-117.77-25.08-127.1C581.75,331.37,641.81,280.06,672.71,321.45Z"/><path class="cls-7" d="M668.05,547.68s4.66-9.91,15.16-3.5l8.74,10.5s22.55,18.67,6.55,22.67c-16.49,4.12-26.37-.26-26.37-.26s-2.92-1.75-5.25-1.75-7.58-4.08-7.58-5.25,1.75-21.83,1.75-21.83a3.69,3.69,0,0,1,4.08.59C666.88,550.6,668.05,547.68,668.05,547.68Z"/><path class="cls-7" d="M633.65,544.18s11.07-8.74,16.32,1.17c0,0,3.31,1.16,3.69,0S657,543.6,657,550s3.16,22.41.25,23-5.83,2.33-5.25,4.66-3.16,2.66-16.57,2.08-14-5.83-14-5.83,0-7.58,3.5-11.66S633.65,544.18,633.65,544.18Z"/><path class="cls-6" d="M612.07,162.28s-2.91,21.57,15.75,29.15-41.4,32.65-47.23,18.08,1.16-19.24,1.16-19.24,5.83-5.83.59-21.58Z"/><circle class="cls-6" cx="593.42" cy="151.79" r="25.65"/><path class="cls-8" d="M623.15,198.43s-17.49,9.33-34.4,2.33-16.32,23.32-16.32,23.32l8.74,22.74L641.81,241l-4.08-35Z"/><path class="cls-1" d="M614.46,178.48A21.17,21.17,0,0,1,629,189.68l28,8.75,7,9.91-8.17,71.72S671,294.63,671,302.8s18.66,36.15,9.33,32.65-26.24-15.74-26.24-15.74-42.56,1.74-56,13.41-18.66,8.16-18.66,8.16-14-60.64-14.57-70S547.94,206,547.94,206l29.15-16.33,7.43-8.42,20.56,32.91,18.65-22.74S614.52,184.18,614.46,178.48Z"/><path class="cls-6" d="M672.71,253.24l3.5,18.65S692,330.2,689.62,350c0,0,1.75,44.32-8.16,39.07s-4.67-37.32-4.67-37.32l-14-57.72-7.58-33.82Z"/><path class="cls-1" d="M658.13,204.84l5.84,3.5s22.15,46.06,16.9,49.56-28,11.08-28,11.08Z"/><polygon class="cls-1" points="561.93 206.01 548.23 205.72 545.02 211.26 549.1 267.81 570.09 272.48 561.93 206.01"/><path class="cls-7" d="M614.31,130.09l4.62-1.68s-9.67-9.67-23.12-8.83l3.78-3.78s-9.24-3.37-17.65,5.46c-4.42,4.64-9.54,10.1-12.72,16.24h-5l2.07,4.13-7.23,4.14,7.42-.74a20.92,20.92,0,0,0,.7,10.7l1.69,4.62s6.72-13.45,6.72-15.13v4.21s4.63-3.79,4.63-6.31l2.52,2.94,1.26-4.62,15.55,4.62-2.52-3.78,9.67,1.26L603,138.92s10.93,5.46,11.35,10.09,3.3,10.65,3.3,10.65l3.5-4.08S626.5,136.39,614.31,130.09Z"/><ellipse class="cls-6" cx="614.99" cy="152.08" rx="2.04" ry="5.25"/><path class="cls-1" d="M41.63,547C54.06,570.07,80.44,580,80.44,580s6.23-27.48-6.2-50.52-38.81-33-38.81-33S29.21,524,41.63,547Z"/><path class="cls-3" d="M50.18,539.43c22.43,13.5,31.08,40.32,31.08,40.32s-27.74,4.92-50.18-8.58S0,530.86,0,530.86,27.74,525.93,50.18,539.43Z"/><path class="cls-4" d="M282.51,197.35s69-36,117,0,133,3.4,133,3.4"/><circle class="cls-5" cx="407.75" cy="552.68" r="11"/></g></g></svg>